<svg xmlns="http://www.w3.org/2000/svg" width="200" height="200" fill="none" viewBox="0 0 200 200">
  <path d="m177.6 97.19-0.2-0.43-0.38-0.25c-16.16-10.8-31.64-29.44-36.79-55.6-4.06-20.3-18.51-38.88-40.17-38.88h-0.69c-20.32-0.05-37.34 16.94-40.12 36.53-4.17 28.63-19.76 47.56-37.31 58.2l-0.36 0.43c2.32 8.64 16.5 29.7 41.56 33.68 10.48 1.73 20.43-0.66 28.44-2.61 2.64 1.45 5.46 2.58 7.97 3.36 6.28-2.34 11.44-5.12 16.21-7.83 6.61 3.63 13.65 5.59 21.07 5.48 19.38-0.3 37.6-22.18 40.77-32.08zm-37.75-43.04c2.62 8.56 4.48 19.05 2.92 28.97-3.12-8.01-6.49-21.78-9.46-41.78-1.17-7.75-2.74-15.66-5.29-22.14 5.92 5.91 8.75 14.71 11.83 34.95zm6.29 14.76c7.11 12.34 14.89 20.95 27.14 29.84-3.24 5.97-5.33 9.34-10.25 14.2-8.04-7.74-14.88-17.87-17.9-23.79 2.45-7.08 2.22-12.74 1.01-20.25zm-6.22 21.86c5.11 9.84 10.99 17.21 19.51 24.62-7.26 6.71-14.13 10.39-23.05 10.28-6.44-0.08-12.36-1.96-17.34-4.5 9.71-6.89 16.71-15.25 23.38-27.96 0.53-1.03-0.94-3.05-2.5-2.44zm-9.9-54.76c2.57 16.7 5.92 33.79 10.38 46.23 0.45 1.32-0.13 4.01-4.18 11.99-5.12-10.07-6.72-22.62-6.48-30.13 0.3-9.97 0.03-16.68-1.34-23.62-0.54-2.87 0.87-7.52 1.62-4.47zm-27.73-30.4c8.68 0.7 18.55 9.06 22.03 15.76-4.29-1.96-7.7-2.82-12.75-2.74-15.05 0.27-27.08 11.26-25.72 29.98l0.5 2.98c-8.11-15.21-4.36-35.18 10.32-44.51 1.73-0.93 3.6-1.47 5.62-1.47zm24.09 21.5c1.01 2.18 1.7 5.17 1.93 7.54-5.66-4.57-11.16-5.94-17.52-5.36-9.87 0.92-16.72 5.49-20.75 11.29 2.55-11.5 11.76-17.61 21.71-17.61 5.66 0 9.3 1.02 14.63 4.14zm-5.32 7.8c-1.03 12.2-9.33 31.68-20.35 31.68-7.59 0-11.07-8.64-10.32-14.97 1.62-12.9 14.38-19.58 27.28-17.63 1.05 0.22 2.28 0.52 3.39 0.92zm-49.37-15.81c-4.54 8.11-5.22 15.91-6.72 26.21-2.28 15.1-4.6 23.76-7.65 36.59-1.69-7.75-0.55-12.71 1.59-22.82 3.7-16.97 3.91-27.53 12.78-39.98zm-45.39 79.52c11.58-8.73 19.57-16.34 26.92-29.24-0.58 7.72 0.1 13.53 1.5 19.03-4.98 10.36-10.62 17.87-17.74 24.2-4.04-3.62-8.53-9.09-10.68-13.99zm13.57 16.19c7.88-7.08 12.84-14.09 16.49-20.9 5.28 12.5 14.92 24.05 30.35 32.1-15.96 3.77-30.02 2.28-46.84-11.2zm59.72 13.07c-14.53-5.11-33.62-19.2-39.62-38.56 4.1-11.05 7.35-21.06 9.25-36.16 4.34 26.62 14.48 46.58 42.95 68.55-4.03 2.75-7.56 4.37-12.58 6.17zm17.74-11.95c3.74-10.64-1.73-19.64-12.86-27.87-16.72-13.05-32.59-26.75-32.59-52.28 0-9.44 4.56-21.67 15.59-27.99-10.48 8.94-11.66 20.4-9.88 30.13 3.21 17.27 15.28 30.29 30 41.27 9.4 6.88 18.06 14.2 18.06 24.39 0 5.22-2.4 9.63-8.32 12.35z" fill="url(#paint0_linear_1253_3155)"/>
  <path d="m16.09 148.6h-12.39v28.29h6.01v-7.98h6.38c7.73 0 11.94-4.06 11.94-9.99 0-6.26-4.22-10.32-11.94-10.32zm-0.25 15.2h-6.13v-10.09h6.13c4.47 0 5.88 2.35 5.88 5.3 0 2.6-1.41 4.79-5.88 4.79z" fill="#2C3136" stroke="#2C3136" stroke-miterlimit="10" stroke-width=".7"/>
  <path d="m48.58 148.4c-9.4 0-14.86 6.71-14.86 14.65 0 7.95 5.46 14.05 14.86 14.05s15.23-6.7 15.23-14.05c0-7.94-5.46-14.65-15.23-14.65zm0 23.35c-5.92 0-9.35-4.32-9.35-8.97 0-5.25 3.29-9.03 9.35-9.03 6.21 0 9.45 4.32 9.45 9.03 0 4.94-3.29 8.97-9.45 8.97z" fill="#2C3136" stroke="#2C3136" stroke-miterlimit="10" stroke-width=".7"/>
  <path d="m96.75 148.6h-7.1l-12.67 13.99v-13.99h-5.92v27.21h5.92v-6.5l4.63-4.71 8.25 11.21h7.62l-11.77-15.08 11.04-12.13z" fill="#2C3136" stroke="#2C3136" stroke-miterlimit="10" stroke-width=".7"/>
  <path d="m126.8 158.9c0-6.26-4.59-10.31-11.23-10.31h-13.2v27.21h6.06v-7.6h7.16l4.56 7.6h7.51l-6.5-8.98c3.73-1.67 5.64-4.12 5.64-7.92zm-11.68 4.64h-6.69v-9.84h6.69c3.73 0 5.37 2.19 5.37 4.91 0 2.44-1.64 4.93-5.37 4.93z" fill="#2C3136" stroke="#2C3136" stroke-miterlimit="10" stroke-width=".7"/>
  <path d="m147.6 148.4c-9.4 0-14.86 6.71-14.86 14.65 0 7.95 5.46 14.05 14.86 14.05s15.23-6.7 15.23-14.05c0-7.94-5.46-14.65-15.23-14.65zm0 23.35c-5.92 0-9.35-4.32-9.35-8.97 0-5.25 3.29-9.03 9.35-9.03 6.21 0 9.45 4.32 9.45 9.03 0 4.94-3.29 8.97-9.45 8.97z" fill="#2C3136" stroke="#2C3136" stroke-miterlimit="10" stroke-width=".7"/>
  <path d="m190 148.6-8.37 21.16-9.2-21.16h-6.31l11.97 27.41h6.22l12-27.41h-6.31z" fill="#2C3136" stroke="#2C3136" stroke-miterlimit="10" stroke-width=".7"/>
  <path d="m45.14 188h-3.9v10.03h1.38v-2.83h2.52c3.02 0 4.07-1.86 4.07-3.73 0-1.96-1.33-3.47-4.07-3.47zm-0.05 6h-2.47v-4.8h2.47c2.02 0 2.77 1.04 2.77 2.35 0 1.21-0.75 2.45-2.77 2.45z" fill="#2C3136" stroke="#2C3136" stroke-miterlimit="10" stroke-width=".1"/>
  <path d="m60.12 191.4c0-1.96-1.4-3.46-3.92-3.46h-3.92v9.76h1.38v-2.72h2.87c0.19 0 0.38-0.02 0.56-0.04l1.92 2.76h1.6l-2.23-3.1c1.15-0.65 1.74-1.78 1.74-3.2zm-3.98 2.38h-2.48v-4.64h2.48c1.77 0 2.63 0.94 2.63 2.31 0 1.22-0.86 2.33-2.63 2.33z" fill="#2C3136" stroke="#2C3136" stroke-miterlimit="10" stroke-width=".1"/>
  <path d="m65.39 193.6h5.06v-1.13h-5.06v-3.37h5.32v-1.12h-6.6v9.76h6.78v-1.12h-5.5v-3.02z" fill="#2C3136" stroke="#2C3136" stroke-miterlimit="10" stroke-width=".1"/>
  <path d="m80.35 195.2-4.08-7.25h-1.13v9.76h1.27v-7.01l3.38 6.29h0.97l3.45-6.29v7.01h1.32v-9.76h-1.13l-4.05 7.25z" fill="#2C3136" stroke="#2C3136" stroke-miterlimit="10" stroke-width=".1"/>
  <path d="m90.57 188h-1.32v9.76h1.32v-9.76z" fill="#2C3136" stroke="#2C3136" stroke-miterlimit="10" stroke-width=".1"/>
  <path d="m101.5 193.4c0 2.22-1.13 3.34-2.92 3.34-1.97 0-3.01-1.27-3.01-3.49v-5.25h-1.3v5.4c0 2.89 1.46 4.53 4.15 4.53 2.52 0 4.31-1.49 4.31-4.68v-5.25h-1.23v5.4z" fill="#2C3136" stroke="#2C3136" stroke-miterlimit="10" stroke-width=".1"/>
  <path d="m112.6 195.2-4.09-7.25h-1.13v9.76h1.27v-7.01l3.39 6.29h0.96l3.45-6.29v7.01h1.32v-9.76h-1.13l-4.04 7.25z" fill="#2C3136" stroke="#2C3136" stroke-miterlimit="10" stroke-width=".1"/>
  <path d="m130.9 196.2-3.58-8.33h-1.52l4.42 9.91h1.35l4.48-9.91h-1.52l-3.63 8.33z" fill="#2C3136" stroke="#2C3136" stroke-miterlimit="10" stroke-width=".3"/>
  <path d="m142.6 187.9h-3.9v9.03h1.38v-2.4h2.52c3.02 0 4.07-1.67 4.07-3.35 0-1.79-1.33-3.28-4.07-3.28zm-0.05 5.51h-2.47v-4.39h2.47c2.02 0 2.77 1.04 2.77 2.19 0 1.1-0.75 2.2-2.77 2.2z" fill="#2C3136" stroke="#2C3136" stroke-miterlimit="10" stroke-width=".1"/>
  <path d="m157.1 195.5-5.9-7.51h-1.06v9.76h1.32v-7.44l5.94 7.52h1.04v-9.84h-1.34v7.51z" fill="#2C3136" stroke="#2C3136" stroke-miterlimit="10" stroke-width=".1"/>
  <defs>
    <linearGradient id="paint0_linear_1253_3155" x1="99.63" x2="99.63" y1="1.976" y2="131.6" gradientUnits="userSpaceOnUse">
      <stop stop-color="#0B4832" offset="0"/>
      <stop stop-color="#0D4A35" offset="1"/>
    </linearGradient>
  </defs>
</svg>
