<svg xmlns="http://www.w3.org/2000/svg" width="200" height="200" fill="none" viewBox="0 0 200 200">
  <path d="m177.6 97.19-0.2-0.43-0.38-0.25c-16.16-10.8-31.64-29.44-36.79-55.6-4.06-20.3-18.51-38.88-40.17-38.88h-0.69c-20.32-0.05-37.34 16.94-40.12 36.53-4.17 28.63-19.76 47.56-37.31 58.2l-0.36 0.43c2.32 8.64 16.5 29.7 41.56 33.68 10.48 1.73 20.43-0.66 28.44-2.61 2.64 1.45 5.46 2.58 7.97 3.36 6.28-2.34 11.44-5.12 16.21-7.83 6.61 3.63 13.65 5.59 21.07 5.48 19.38-0.3 37.6-22.18 40.77-32.08zm-37.75-43.04c2.62 8.56 4.48 19.05 2.92 28.97-3.12-8.01-6.49-21.78-9.46-41.78-1.17-7.75-2.74-15.66-5.29-22.14 5.92 5.91 8.75 14.71 11.83 34.95zm6.29 14.76c7.11 12.34 14.89 20.95 27.14 29.84-3.24 5.97-5.33 9.34-10.25 14.2-8.04-7.74-14.88-17.87-17.9-23.79 2.45-7.08 2.22-12.74 1.01-20.25zm-6.22 21.86c5.11 9.84 10.99 17.21 19.51 24.62-7.26 6.71-14.13 10.39-23.05 10.28-6.44-0.08-12.36-1.96-17.34-4.5 9.71-6.89 16.71-15.25 23.38-27.96 0.53-1.03-0.94-3.05-2.5-2.44zm-9.9-54.76c2.57 16.7 5.92 33.79 10.38 46.23 0.45 1.32-0.13 4.01-4.18 11.99-5.12-10.07-6.72-22.62-6.48-30.13 0.3-9.97 0.03-16.68-1.34-23.62-0.54-2.87 0.87-7.52 1.62-4.47zm-27.73-30.4c8.68 0.7 18.55 9.06 22.03 15.76-4.29-1.96-7.7-2.82-12.75-2.74-15.05 0.27-27.08 11.26-25.72 29.98l0.5 2.98c-8.11-15.21-4.36-35.18 10.32-44.51 1.73-0.93 3.6-1.47 5.62-1.47zm24.09 21.5c1.01 2.18 1.7 5.17 1.93 7.54-5.66-4.57-11.16-5.94-17.52-5.36-9.87 0.92-16.72 5.49-20.75 11.29 2.55-11.5 11.76-17.61 21.71-17.61 5.66 0 9.3 1.02 14.63 4.14zm-5.32 7.8c-1.03 12.2-9.33 31.68-20.35 31.68-7.59 0-11.07-8.64-10.32-14.97 1.62-12.9 14.38-19.58 27.28-17.63 1.05 0.22 2.28 0.52 3.39 0.92zm-49.37-15.81c-4.54 8.11-5.22 15.91-6.72 26.21-2.28 15.1-4.6 23.76-7.65 36.59-1.69-7.75-0.55-12.71 1.59-22.82 3.7-16.97 3.91-27.53 12.78-39.98zm-45.39 79.52c11.58-8.73 19.57-16.34 26.92-29.24-0.58 7.72 0.1 13.53 1.5 19.03-4.98 10.36-10.62 17.87-17.74 24.2-4.04-3.62-8.53-9.09-10.68-13.99zm13.57 16.19c7.88-7.08 12.84-14.09 16.49-20.9 5.28 12.5 14.92 24.05 30.35 32.1-15.96 3.77-30.02 2.28-46.84-11.2zm59.72 13.07c-14.53-5.11-33.62-19.2-39.62-38.56 4.1-11.05 7.35-21.06 9.25-36.16 4.34 26.62 14.48 46.58 42.95 68.55-4.03 2.75-7.56 4.37-12.58 6.17zm17.74-11.95c3.74-10.64-1.73-19.64-12.86-27.87-16.72-13.05-32.59-26.75-32.59-52.28 0-9.44 4.56-21.67 15.59-27.99-10.48 8.94-11.66 20.4-9.88 30.13 3.21 17.27 15.28 30.29 30 41.27 9.4 6.88 18.06 14.2 18.06 24.39 0 5.22-2.4 9.63-8.32 12.35z" fill="url(#paint0_linear_1253_3155)"/>
  <defs>
    <linearGradient id="paint0_linear_1253_3155" x1="99.63" x2="99.63" y1="1.976" y2="131.6" gradientUnits="userSpaceOnUse">
      <stop stop-color="#0B4832" offset="0"/>
      <stop stop-color="#0D4A35" offset="1"/>
    </linearGradient>
  </defs>
</svg>
